<?xml version="1.0" standalone="no"?>
<!DOCTYPE svg PUBLIC "-//W3C//DTD SVG 20010904//EN"
 "http://www.w3.org/TR/2001/REC-SVG-20010904/DTD/svg10.dtd">
<svg version="1.0" xmlns="http://www.w3.org/2000/svg"
 width="1024.000000pt" height="1024.000000pt" viewBox="0 0 1024.000000 1024.000000"
 preserveAspectRatio="xMidYMid meet">
<metadata>
Created by potrace 1.14, written by Peter Selinger 2001-2017
</metadata>
<g transform="translate(0.000000,1024.000000) scale(0.100000,-0.100000)"
fill="#000000" stroke="none">
<path d="M4915 9473 c-302 -15 -731 -90 -1005 -175 -182 -56 -452 -157 -524
-196 -17 -9 -33 -17 -36 -17 -38 -10 -60 -18 -60 -24 0 -6 -32 -21 -65 -30 -5
-2 -22 -12 -37 -22 -14 -10 -33 -19 -41 -19 -9 0 -17 -3 -19 -7 -1 -5 -33 -23
-70 -42 -38 -19 -68 -38 -68 -43 0 -4 -4 -8 -9 -8 -8 0 -77 -38 -126 -70 -13
-8 -45 -28 -72 -44 -26 -16 -50 -32 -53 -36 -3 -3 -27 -21 -55 -40 -27 -18
-78 -55 -112 -82 -35 -27 -63 -45 -63 -41 0 4 -7 -3 -16 -15 -8 -12 -22 -22
-30 -22 -8 0 -12 -4 -9 -10 3 -5 2 -10 -4 -10 -5 0 -16 -6 -23 -12 -7 -7 -33
-29 -58 -49 -25 -20 -67 -58 -95 -84 -27 -26 -85 -78 -128 -116 -43 -38 -75
-69 -71 -69 4 0 -5 -9 -20 -21 -14 -11 -26 -24 -26 -28 0 -4 -33 -42 -74 -84
-41 -43 -73 -77 -70 -77 2 0 -4 -8 -14 -18 -33 -34 -107 -124 -111 -136 -2 -6
-9 -15 -16 -21 -34 -29 -291 -405 -278 -405 5 0 3 -4 -3 -8 -13 -9 -74 -109
-74 -122 0 -6 -5 -10 -12 -10 -6 0 -9 -3 -5 -6 3 -4 -5 -23 -18 -43 -14 -19
-25 -41 -25 -48 0 -7 -4 -13 -10 -13 -5 0 -9 -3 -8 -7 2 -11 -45 -107 -54
-111 -5 -2 -8 -12 -8 -23 0 -10 -4 -19 -8 -19 -5 0 -9 -6 -10 -12 0 -7 -26
-70 -56 -140 -31 -70 -70 -167 -87 -215 -35 -101 -88 -265 -94 -290 -2 -10
-15 -58 -29 -108 -52 -181 -111 -519 -122 -700 -4 -49 -10 -119 -15 -155 -11
-85 -4 -584 11 -725 9 -96 22 -194 45 -340 13 -79 57 -282 81 -375 30 -112
119 -392 139 -435 7 -16 33 -77 56 -135 24 -58 49 -113 57 -122 9 -10 12 -18
8 -18 -8 0 92 -200 112 -222 8 -10 12 -18 9 -18 -3 0 16 -36 43 -81 28 -44 50
-83 50 -85 0 -3 5 -10 10 -17 6 -7 33 -48 61 -92 27 -44 54 -81 59 -83 6 -2
10 -8 10 -14 0 -13 162 -228 172 -228 4 0 8 -6 8 -14 0 -8 7 -16 15 -20 8 -3
15 -12 15 -21 0 -8 4 -15 9 -15 5 0 27 -19 48 -41 21 -23 46 -49 56 -58 9 -8
17 -21 17 -29 0 -7 4 -10 10 -7 5 3 10 2 10 -3 0 -12 109 -120 115 -114 3 3 5
-2 5 -11 0 -9 7 -17 16 -17 8 0 12 -5 9 -10 -3 -5 2 -10 11 -10 10 0 15 -2 12
-5 -3 -3 22 -32 56 -63 33 -31 63 -60 64 -64 2 -5 10 -8 18 -8 8 0 14 -4 14
-10 0 -10 51 -60 62 -60 3 0 19 -12 35 -27 40 -39 112 -97 126 -102 6 -2 19
-14 29 -25 9 -12 17 -17 18 -13 0 5 7 2 15 -5 28 -25 40 -34 85 -61 25 -15 41
-27 35 -27 -5 0 -1 -6 11 -13 11 -6 52 -33 90 -58 38 -26 96 -61 129 -80 33
-18 66 -39 73 -46 7 -7 18 -13 23 -13 5 0 38 -18 74 -40 36 -22 71 -40 78 -40
6 0 23 -9 37 -20 14 -11 32 -20 40 -20 8 0 26 -9 40 -20 14 -11 30 -20 36 -20
5 0 30 -10 55 -22 24 -12 46 -23 49 -23 5 -2 39 -16 90 -38 14 -6 27 -11 30
-12 3 -1 19 -7 35 -14 64 -26 170 -65 180 -67 12 -2 174 -53 195 -61 8 -4 17
-7 20 -8 3 0 39 -9 80 -19 41 -10 82 -20 90 -23 49 -19 374 -78 485 -89 28 -2
59 -7 70 -9 90 -19 633 -28 820 -13 96 8 271 31 370 48 33 6 75 13 94 16 19 2
37 6 41 9 4 2 22 7 41 10 139 25 477 122 594 171 17 7 44 16 60 20 17 4 35 10
40 14 6 4 48 22 95 41 47 19 87 37 88 42 2 4 10 7 17 7 11 0 168 77 225 110
92 54 146 84 205 115 39 21 72 42 73 46 2 5 8 7 13 3 5 -3 9 0 9 5 0 6 7 11
15 11 8 0 15 4 15 9 0 5 10 13 23 17 20 6 33 16 87 66 10 9 21 14 24 10 3 -3
6 0 6 7 0 7 4 10 8 7 5 -3 20 6 35 20 15 14 27 21 27 17 1 -4 10 3 20 16 11
13 20 19 20 15 0 -5 4 -4 8 2 4 5 25 23 47 39 22 16 50 40 61 52 12 12 24 20
26 17 3 -2 28 18 56 44 29 27 52 47 52 45 0 -3 53 45 170 157 32 31 72 73 89
94 17 21 31 36 31 32 0 -3 17 13 38 36 20 23 53 58 73 78 55 55 159 179 159
191 0 6 5 7 10 4 6 -3 10 -1 10 5 0 6 5 16 10 23 30 35 100 130 100 136 0 3
10 17 23 31 13 14 29 39 37 57 8 17 18 29 22 27 4 -3 8 0 8 6 0 6 16 35 35 64
19 29 35 58 35 65 0 6 4 11 8 11 10 0 68 101 64 113 -1 4 2 7 8 7 5 0 10 7 10
15 0 8 5 15 10 15 6 0 10 6 11 13 0 6 11 32 24 57 69 129 214 450 219 484 1 6
4 16 8 21 11 19 96 290 121 385 43 167 79 338 91 430 4 25 8 56 10 70 3 14 9
66 15 115 6 50 13 113 17 140 13 116 13 651 -2 800 -13 134 -36 316 -48 370
-2 11 -11 61 -20 110 -9 50 -21 104 -26 120 -5 17 -11 44 -13 60 -3 17 -15 64
-27 105 -11 41 -23 84 -25 94 -3 11 -11 40 -20 65 -8 25 -15 49 -15 53 0 4 -9
28 -20 53 -11 25 -19 47 -20 50 0 3 -7 21 -15 41 -8 20 -15 39 -15 43 0 9 -96
235 -114 269 -8 15 -24 49 -36 77 -12 27 -40 81 -61 118 -22 38 -39 74 -39 80
0 6 -6 18 -14 26 -8 9 -28 42 -44 73 -16 32 -32 54 -36 51 -3 -3 -6 1 -6 9 0
16 -138 230 -152 236 -5 2 -8 9 -8 16 0 6 -13 26 -30 44 -16 18 -28 34 -27 36
1 3 -8 16 -20 30 -13 15 -23 31 -23 37 0 5 -4 7 -10 4 -5 -3 -10 -1 -10 5 0
13 -49 77 -102 135 -21 22 -38 46 -38 53 0 7 -4 10 -10 7 -5 -3 -10 -2 -10 2
0 5 -20 30 -44 56 -24 26 -41 47 -39 47 3 0 -13 15 -35 33 -23 17 -41 37 -41
43 -1 7 -23 32 -51 57 -27 25 -50 50 -50 56 0 6 -11 13 -25 17 -14 4 -24 8
-22 11 3 2 -18 25 -47 51 -28 26 -53 49 -56 52 -25 28 -201 170 -210 170 -6 0
-8 5 -5 10 3 6 -1 10 -10 10 -8 0 -18 7 -21 15 -3 8 -14 17 -24 20 -10 3 -30
17 -46 30 -16 14 -65 49 -109 78 -44 28 -83 56 -87 62 -4 5 -8 6 -8 2 0 -4 -6
-3 -12 3 -29 24 -104 70 -115 70 -7 0 -13 4 -13 9 0 5 -15 14 -32 22 -18 7
-35 15 -38 18 -8 10 -283 156 -287 153 -2 0 -38 15 -80 34 -147 68 -327 133
-553 202 -60 19 -337 84 -405 97 -324 57 -713 83 -1010 68z"/>
</g>
</svg>
