<svg xmlns="http://www.w3.org/2000/svg" height="24" viewBox="0 96 960 960" width="24"><path d="m480 652 76 76q12 11 28.5 11t27.5-11q12-12 12-28.5T612 672l-76-76 76-76q12-12 12-28.5T612 464q-11-12-27.5-12T556 464l-76 76-76-76q-11-12-27.5-12T348 464q-11 11-11 27.5t11 28.5l76 76-76 76q-11 11-11 27.5t11 28.5q12 11 28.5 11t27.5-11l76-76ZM280 936q-33 0-56.5-23.5T200 856V336q-17 0-28.5-11.5T160 296q0-17 11.5-28.5T200 256h160q0-17 11.5-28.5T400 216h160q17 0 28.5 11.5T600 256h160q17 0 28.5 11.5T800 296q0 17-11.5 28.5T760 336v520q0 33-23.5 56.5T680 936H280Z"/></svg>