<svg class="svg-icon" height="24" style="width: 1em; height: 1em;vertical-align: middle;fill: currentColor;overflow: hidden;" viewBox="0 0 1024 1024" version="1.1" xmlns="http://www.w3.org/2000/svg"><path d="M477.934459 330.486594A50.844091 50.844091 0 0 1 406.752731 258.796425L512 152.532274a254.220457 254.220457 0 0 1 359.467726 359.467726L762.66137 618.772592a50.844091 50.844091 0 1 1-71.690168-71.690169l106.772591-106.772592a152.532274 152.532274 0 0 0-215.578947-215.578947z m70.164846 361.501489A50.844091 50.844091 0 1 1 619.789474 762.66137l-107.281033 107.281033A254.220457 254.220457 0 0 1 152.532274 512L259.813307 406.752731a50.844091 50.844091 0 1 1 72.19861 69.656405l-107.789474 107.281033a152.532274 152.532274 0 0 0 215.578947 215.578947z m-126.601788-16.77855a50.844091 50.844091 0 1 1-71.690168-71.690169l251.678252-251.678252a50.844091 50.844091 0 0 1 71.690169 71.690169z" fill="#666666" /></svg>